<svg width="100" height="100" viewBox="0 0 100 100" fill="none" xmlns="http://www.w3.org/2000/svg">
<path d="M17 18C17 35.6956 17 45.6169 17 63.3125C20.1852 68.2673 30.471 76.6702 33.6562 81.625M17 18C34.6956 18 44.6169 18 62.3125 18C67.2673 22.247 78.1687 30.7365 83.5 34.5M17 18C20.1852 22.247 30.471 30.253 33.6562 34.5M83.5 34.5C83.5 52.9035 83.5 63.2215 83.5 81.625C64.0348 81.625 53.1214 81.625 33.6562 81.625M83.5 34.5C64.0348 34.5 53.1214 34.5 33.6562 34.5M33.6562 34.5C33.6562 52.9035 33.6562 63.2215 33.6562 81.625" stroke="white" stroke-width="5"/>
</svg>
