<svg width="16" height="16" viewBox="0 0 16 16" fill="none" xmlns="http://www.w3.org/2000/svg">
<path d="M3.42969 2.63477C3.47471 2.64639 3.51444 2.67467 3.54004 2.71484L4.14453 3.66504C4.17015 3.70509 4.20993 3.73354 4.25488 3.74512L4.30078 3.75098H12.9707C13.872 3.75098 14.6025 4.48153 14.6025 5.38281V10H13.333V5.38281C13.333 5.18253 13.171 5.02051 12.9707 5.02051H4.30078C3.8036 5.02034 3.34027 4.76607 3.07324 4.34668L2.78809 3.89844H2.00098V11.8086C2.00121 12.0086 2.16319 12.1708 2.36328 12.1709H8V13.4404H2.36328L2.19629 13.4316C1.42856 13.3536 0.818483 12.7433 0.740234 11.9756L0.731445 11.8086V2.83301C0.731445 2.73437 0.801488 2.65177 0.894531 2.63281L0.935547 2.62891H3.38379L3.42969 2.63477Z" fill="#686D80"/>
<path d="M14.48 11.5466H12.4V9.46663C12.4 9.37469 12.3635 9.28651 12.2985 9.2215C12.2335 9.15649 12.1453 9.11996 12.0534 9.11996C11.9614 9.11996 11.8733 9.15649 11.8082 9.2215C11.7432 9.28651 11.7067 9.37469 11.7067 9.46663V11.5466H9.62671C9.53477 11.5466 9.44659 11.5832 9.38158 11.6482C9.31657 11.7132 9.28004 11.8014 9.28004 11.8933C9.28004 11.9852 9.31657 12.0734 9.38158 12.1384C9.44659 12.2034 9.53477 12.24 9.62671 12.24H11.7067V14.32C11.7067 14.4119 11.7432 14.5001 11.8082 14.5651C11.8733 14.6301 11.9614 14.6666 12.0534 14.6666C12.1453 14.6666 12.2335 14.6301 12.2985 14.5651C12.3635 14.5001 12.4 14.4119 12.4 14.32V12.24H14.48C14.572 12.24 14.6602 12.2034 14.7252 12.1384C14.7902 12.0734 14.8267 11.9852 14.8267 11.8933C14.8267 11.8014 14.7902 11.7132 14.7252 11.6482C14.6602 11.5832 14.572 11.5466 14.48 11.5466Z" fill="#DDDDDD"/>
</svg>
