<svg width="16" height="16" viewBox="0 0 16 16" fill="none" xmlns="http://www.w3.org/2000/svg">
<path d="M12.4805 5.7334V10H11.2002V6.37402H8.02246C7.52406 6.374 7.12012 5.96911 7.12012 5.4707V2.87988H4.68652C4.48429 2.87988 4.32051 3.0439 4.32031 3.24609V11.6328C4.32031 11.8352 4.48417 12 4.68652 12H6.5V13.2793H4.68652L4.51855 13.2715C3.68813 13.1874 3.04004 12.4854 3.04004 11.6328V3.24609C3.04022 2.39367 3.68827 1.69251 4.51855 1.6084L4.68652 1.59961H7.75977L12.4805 5.7334ZM8.40039 5.09375H9.80664L8.40039 3.86133V5.09375Z" fill="#686D80"/>
<path d="M12.72 11.5467H10.64V9.46667C10.64 9.37473 10.6035 9.28655 10.5385 9.22154C10.4735 9.15653 10.3853 9.12 10.2933 9.12C10.2014 9.12 10.1132 9.15653 10.0482 9.22154C9.98319 9.28655 9.94667 9.37473 9.94667 9.46667V11.5467H7.86667C7.77473 11.5467 7.68655 11.5832 7.62154 11.6482C7.55653 11.7132 7.52 11.8014 7.52 11.8933C7.52 11.9853 7.55653 12.0735 7.62154 12.1385C7.68655 12.2035 7.77473 12.24 7.86667 12.24H9.94667V14.32C9.94667 14.4119 9.98319 14.5001 10.0482 14.5651C10.1132 14.6301 10.2014 14.6667 10.2933 14.6667C10.3853 14.6667 10.4735 14.6301 10.5385 14.5651C10.6035 14.5001 10.64 14.4119 10.64 14.32V12.24H12.72C12.8119 12.24 12.9001 12.2035 12.9651 12.1385C13.0301 12.0735 13.0667 11.9853 13.0667 11.8933C13.0667 11.8014 13.0301 11.7132 12.9651 11.6482C12.9001 11.5832 12.8119 11.5467 12.72 11.5467Z" fill="#DDDDDD"/>
</svg>
