<svg width="16" height="17" viewBox="0 0 16 17" fill="none" xmlns="http://www.w3.org/2000/svg">
<path d="M12.6666 7.83333H8.66663V3.83333C8.66663 3.65652 8.59639 3.48695 8.47136 3.36193C8.34634 3.23691 8.17677 3.16667 7.99996 3.16667C7.82315 3.16667 7.65358 3.23691 7.52856 3.36193C7.40353 3.48695 7.33329 3.65652 7.33329 3.83333V7.83333H3.33329C3.15648 7.83333 2.98691 7.90357 2.86189 8.0286C2.73686 8.15362 2.66663 8.32319 2.66663 8.5C2.66663 8.67681 2.73686 8.84638 2.86189 8.97141C2.98691 9.09643 3.15648 9.16667 3.33329 9.16667H7.33329V13.1667C7.33329 13.3435 7.40353 13.513 7.52856 13.6381C7.65358 13.7631 7.82315 13.8333 7.99996 13.8333C8.17677 13.8333 8.34634 13.7631 8.47136 13.6381C8.59639 13.513 8.66663 13.3435 8.66663 13.1667V9.16667H12.6666C12.8434 9.16667 13.013 9.09643 13.138 8.97141C13.2631 8.84638 13.3333 8.67681 13.3333 8.5C13.3333 8.32319 13.2631 8.15362 13.138 8.0286C13.013 7.90357 12.8434 7.83333 12.6666 7.83333Z" fill="#DDDDDD"/>
</svg>
