<svg width="12" height="12" viewBox="0 0 12 12" fill="none" xmlns="http://www.w3.org/2000/svg">
<path d="M6.31951 4.7461C6.13145 4.42038 6.24306 4.00388 6.56878 3.81582L7.74833 3.13481C8.07405 2.94675 8.49055 3.05836 8.67861 3.38408L10.9486 7.31591C11.1367 7.64163 11.0251 8.05813 10.6994 8.24619L9.51983 8.9272C9.19411 9.11525 8.77761 9.00365 8.58955 8.67793L6.31951 4.7461Z" fill="#B055C7"/>
<path d="M1.09842 4.7461C0.910361 4.42038 1.02196 4.00388 1.34768 3.81582L2.52723 3.13481C2.85296 2.94675 3.26946 3.05836 3.45751 3.38408L5.72755 7.31591C5.91561 7.64163 5.80401 8.05813 5.47829 8.24619L4.29874 8.9272C3.97301 9.11525 3.55651 9.00365 3.36846 8.67793L1.09842 4.7461Z" fill="#B055C7"/>
</svg>
