<svg width="100" height="100" viewBox="0 0 100 100" fill="none" xmlns="http://www.w3.org/2000/svg">
<path d="M82.1818 24.0186C84.0606 26.4969 85 29.1522 85 31.9845C85 33.9907 84.5455 35.7904 83.6364 37.3835C82.7273 38.9767 81.303 40.7764 79.3636 42.7826C77.6667 44.4938 76.4242 46.1165 75.6364 47.6506C74.8485 49.1258 74.3333 50.5124 74.0909 51.8106C73.9091 53.0497 73.697 55.0264 73.4545 57.7407C73.4545 59.0978 72.9697 60.1009 72 60.75C71.0303 61.3401 70.0303 61.6351 69 61.6351C66.2727 61.6351 64.9091 60.0419 64.9091 56.8556C64.9091 55.1444 65.2121 53.1087 65.8182 50.7484C66.4242 48.3882 67.5455 45.8214 69.1818 43.0481C69.7273 42.104 70.4242 41.1599 71.2727 40.2158C72.1818 39.2717 72.7576 38.6522 73 38.3571C73.9697 37.354 74.7879 36.3214 75.4545 35.2593C76.1212 34.1382 76.4545 33.1646 76.4545 32.3385C76.4545 31.3944 76.303 30.6568 76 30.1258C75.7576 29.5947 75.3636 29.0047 74.8182 28.3556C74.0303 27.4705 73 26.7624 71.7273 26.2314C70.4545 25.7003 69.2727 25.4348 68.1818 25.4348C66.4242 25.4348 64.7879 25.7593 63.2727 26.4084C61.8182 26.9984 60.6364 27.795 59.7273 28.7981C58.8788 29.7422 58.4545 30.7158 58.4545 31.7189C58.4545 33.3711 58.7879 34.6102 59.4545 35.4363C60.1212 36.2034 60.4545 36.9115 60.4545 37.5606C60.4545 37.9146 60.3636 38.3276 60.1818 38.7997C59.4545 40.4519 58.2121 41.278 56.4545 41.278C54.2121 41.278 52.5758 40.4519 51.5455 38.7997C50.5152 37.1475 50 35.0528 50 32.5155C50 30.0963 50.7879 27.795 52.3636 25.6118C53.9394 23.3696 56.2424 21.5404 59.2727 20.1242C62.303 18.7081 65.9091 18 70.0909 18C72.5152 18 74.7879 18.5311 76.9091 19.5932C79.0303 20.5963 80.7879 22.0714 82.1818 24.0186ZM69 64.9984C70.8182 64.9984 72.2727 65.618 73.3636 66.8571C74.2727 67.7422 74.7273 68.9519 74.7273 70.486C74.7273 71.7842 74.0909 72.8758 72.8182 73.7609C71.5455 74.587 70.1515 75 68.6364 75C67.5455 75 66.4848 74.705 65.4545 74.1149C64.1818 73.2298 63.5455 71.6661 63.5455 69.4239C63.5455 68.2438 64.0909 67.2112 65.1818 66.3261C66.3333 65.441 67.6061 64.9984 69 64.9984Z" fill="#FF0000"/>
<path d="M16.8182 76.9814C14.9394 74.5031 14 71.8478 14 69.0155C14 67.0093 14.4545 65.2096 15.3636 63.6165C16.2727 62.0233 17.697 60.2236 19.6364 58.2174C21.3333 56.5062 22.5758 54.8835 23.3636 53.3494C24.1515 51.8742 24.6667 50.4876 24.9091 49.1894C25.0909 47.9503 25.303 45.9736 25.5455 43.2593C25.5455 41.9022 26.0303 40.8991 27 40.25C27.9697 39.6599 28.9697 39.3649 30 39.3649C32.7273 39.3649 34.0909 40.9581 34.0909 44.1444C34.0909 45.8556 33.7879 47.8913 33.1818 50.2516C32.5758 52.6118 31.4545 55.1786 29.8182 57.9519C29.2727 58.896 28.5758 59.8401 27.7273 60.7842C26.8182 61.7283 26.2424 62.3478 26 62.6429C25.0303 63.646 24.2121 64.6786 23.5455 65.7407C22.8788 66.8618 22.5455 67.8354 22.5455 68.6615C22.5455 69.6056 22.697 70.3432 23 70.8742C23.2424 71.4053 23.6364 71.9953 24.1818 72.6444C24.9697 73.5295 26 74.2376 27.2727 74.7686C28.5455 75.2997 29.7273 75.5652 30.8182 75.5652C32.5758 75.5652 34.2121 75.2407 35.7273 74.5916C37.1818 74.0016 38.3636 73.205 39.2727 72.2019C40.1212 71.2578 40.5455 70.2842 40.5455 69.2811C40.5455 67.6289 40.2121 66.3898 39.5455 65.5637C38.8788 64.7966 38.5455 64.0885 38.5455 63.4394C38.5455 63.0854 38.6364 62.6724 38.8182 62.2003C39.5455 60.5481 40.7879 59.722 42.5455 59.722C44.7879 59.722 46.4242 60.5481 47.4545 62.2003C48.4848 63.8525 49 65.9472 49 68.4845C49 70.9037 48.2121 73.205 46.6364 75.3882C45.0606 77.6304 42.7576 79.4596 39.7273 80.8758C36.697 82.2919 33.0909 83 28.9091 83C26.4848 83 24.2121 82.4689 22.0909 81.4068C19.9697 80.4037 18.2121 78.9286 16.8182 76.9814ZM30 36.0016C28.1818 36.0016 26.7273 35.382 25.6364 34.1429C24.7273 33.2578 24.2727 32.0481 24.2727 30.514C24.2727 29.2158 24.9091 28.1242 26.1818 27.2391C27.4545 26.413 28.8485 26 30.3636 26C31.4545 26 32.5152 26.295 33.5455 26.8851C34.8182 27.7702 35.4545 29.3339 35.4545 31.5761C35.4545 32.7562 34.9091 33.7888 33.8182 34.6739C32.6667 35.559 31.3939 36.0016 30 36.0016Z" fill="#FF0000"/>
</svg>
