<svg width="12" height="13" viewBox="0 0 12 13" fill="none" xmlns="http://www.w3.org/2000/svg">
<path d="M11.0625 4.4375H0.9375C0.788316 4.4375 0.645242 4.37824 0.539752 4.27275C0.434263 4.16726 0.375 4.02418 0.375 3.875C0.375 3.72582 0.434263 3.58274 0.539752 3.47725C0.645242 3.37176 0.788316 3.3125 0.9375 3.3125H11.0625C11.2117 3.3125 11.3548 3.37176 11.4602 3.47725C11.5657 3.58274 11.625 3.72582 11.625 3.875C11.625 4.02418 11.5657 4.16726 11.4602 4.27275C11.3548 4.37824 11.2117 4.4375 11.0625 4.4375ZM9.1875 7.0625H2.8125C2.66332 7.0625 2.52024 7.00324 2.41475 6.89775C2.30926 6.79226 2.25 6.64918 2.25 6.5C2.25 6.35082 2.30926 6.20774 2.41475 6.10225C2.52024 5.99676 2.66332 5.9375 2.8125 5.9375H9.1875C9.33668 5.9375 9.47976 5.99676 9.58525 6.10225C9.69074 6.20774 9.75 6.35082 9.75 6.5C9.75 6.64918 9.69074 6.79226 9.58525 6.89775C9.47976 7.00324 9.33668 7.0625 9.1875 7.0625ZM6.9375 9.6875H5.0625C4.91332 9.6875 4.77024 9.62824 4.66475 9.52275C4.55926 9.41726 4.5 9.27418 4.5 9.125C4.5 8.97582 4.55926 8.83274 4.66475 8.72725C4.77024 8.62176 4.91332 8.5625 5.0625 8.5625H6.9375C7.08668 8.5625 7.22976 8.62176 7.33525 8.72725C7.44074 8.83274 7.5 8.97582 7.5 9.125C7.5 9.27418 7.44074 9.41726 7.33525 9.52275C7.22976 9.62824 7.08668 9.6875 6.9375 9.6875Z" fill="#6B6B6B"/>
</svg>
