<svg width="12" height="12" viewBox="0 0 12 12" fill="none" xmlns="http://www.w3.org/2000/svg">
<g clip-path="url(#clip0_8_323)">
<path d="M2.43431 1.97142C2.48235 1.97143 2.52668 1.99632 2.55247 2.03685L3.01048 2.75463C3.03628 2.79516 3.0806 2.82006 3.12865 2.82006H9.68529C10.2065 2.82006 10.6518 3.14348 10.8327 3.60033H0.839584V9.60033H10.7107C10.4892 9.9306 10.1128 10.1482 9.68529 10.1482H1.66283C0.981164 10.1482 0.428452 9.59547 0.428452 8.91381V2.12572C0.428452 2.04055 0.49759 1.97148 0.582748 1.97142H2.43431Z" fill="#686D80"/>
<path d="M1.59249 5.15806C1.75699 4.64832 2.23149 4.30285 2.76712 4.30285H10.7233C11.5434 4.30285 12.1354 5.08792 11.91 5.87645L10.9444 9.25359C10.7929 9.78336 10.3086 10.1486 9.75765 10.1486H1.67726C0.839759 10.1486 0.245411 9.33223 0.502625 8.5352L1.59249 5.15806Z" fill="#B2B6C8"/>
</g>
<defs>
<clipPath id="clip0_8_323">
<rect width="12" height="12" fill="white"/>
</clipPath>
</defs>
</svg>
