<svg width="12" height="12" viewBox="0 0 12 12" fill="none" xmlns="http://www.w3.org/2000/svg">
<path d="M10.0368 2.33924C10.3257 2.33924 10.5602 2.57382 10.5602 2.86267V7.91834C10.5601 8.20712 10.3256 8.4408 10.0368 8.4408H3.53485C3.40023 8.4408 3.27084 8.4933 3.17352 8.58631L2.20477 9.51307C1.87214 9.83124 1.32019 9.59536 1.32001 9.13514V2.86267C1.32001 2.57397 1.55382 2.33949 1.84247 2.33924H10.0368ZM3.32489 4.77967C2.892 4.77986 2.5411 5.131 2.54071 5.56385C2.54071 5.99702 2.89176 6.34881 3.32489 6.349C3.75798 6.34876 4.11005 5.99699 4.11005 5.56385C4.10966 5.13103 3.75774 4.7799 3.32489 4.77967ZM5.94012 4.77967C5.50721 4.77983 5.15633 5.13098 5.15594 5.56385C5.15594 5.99703 5.50697 6.34884 5.94012 6.349C6.37321 6.34876 6.72528 5.99699 6.72528 5.56385C6.7249 5.13103 6.37298 4.7799 5.94012 4.77967ZM8.55536 4.77967C8.12239 4.77977 7.77156 5.13095 7.77118 5.56385C7.77118 5.99707 8.12216 6.3489 8.55536 6.349C8.98845 6.34876 9.34052 5.99699 9.34052 5.56385C9.34013 5.13103 8.98821 4.7799 8.55536 4.77967Z" fill="#0AA0D7"/>
</svg>
