<svg width="12" height="13" viewBox="0 0 12 13" fill="none" xmlns="http://www.w3.org/2000/svg">
<path d="M4.75 8.5C3.84167 8.5 3.073 8.18533 2.444 7.556C1.815 6.92667 1.50033 6.158 1.5 5.25C1.49967 4.342 1.81433 3.57333 2.444 2.944C3.07367 2.31467 3.84233 2 4.75 2C5.65767 2 6.4265 2.31467 7.0565 2.944C7.6865 3.57333 8.001 4.342 8 5.25C8 5.61667 7.94167 5.9625 7.825 6.2875C7.70833 6.6125 7.55 6.9 7.35 7.15L10.15 9.95C10.2417 10.0417 10.2875 10.1583 10.2875 10.3C10.2875 10.4417 10.2417 10.5583 10.15 10.65C10.0583 10.7417 9.94167 10.7875 9.8 10.7875C9.65833 10.7875 9.54167 10.7417 9.45 10.65L6.65 7.85C6.4 8.05 6.1125 8.20833 5.7875 8.325C5.4625 8.44167 5.11667 8.5 4.75 8.5ZM4.75 7.5C5.375 7.5 5.90633 7.28133 6.344 6.844C6.78167 6.40667 7.00033 5.87533 7 5.25C6.99967 4.62467 6.781 4.0935 6.344 3.6565C5.907 3.2195 5.37567 3.00067 4.75 3C4.12433 2.99933 3.59317 3.21817 3.1565 3.6565C2.71983 4.09483 2.501 4.626 2.5 5.25C2.499 5.874 2.71783 6.40533 3.1565 6.844C3.59517 7.28267 4.12633 7.50133 4.75 7.5Z" fill="#DDDDDD"/>
</svg>
