<svg width="100" height="100" viewBox="0 0 100 100" fill="none" xmlns="http://www.w3.org/2000/svg">
<path d="M49.5135 14.9338C49.6988 13.8191 51.3012 13.8191 51.4865 14.9338L55.1602 37.0319C55.2815 37.7619 56.1262 38.1117 56.7282 37.6814L74.9516 24.6534C75.8708 23.9962 77.0038 25.1292 76.3466 26.0484L63.3186 44.2718C62.8883 44.8738 63.2381 45.7185 63.9681 45.8398L86.0662 49.5135C87.1809 49.6988 87.1809 51.3012 86.0662 51.4865L63.9681 55.1602C63.2381 55.2815 62.8883 56.1262 63.3186 56.7282L76.3466 74.9516C77.0038 75.8708 75.8708 77.0038 74.9516 76.3466L56.7282 63.3186C56.1262 62.8883 55.2815 63.2381 55.1602 63.9681L51.4865 86.0662C51.3012 87.1809 49.6988 87.1809 49.5135 86.0662L45.8398 63.9681C45.7185 63.2381 44.8738 62.8883 44.2718 63.3186L26.0484 76.3466C25.1292 77.0038 23.9962 75.8708 24.6534 74.9516L37.6814 56.7282C38.1117 56.1262 37.7619 55.2815 37.0319 55.1602L14.9338 51.4865C13.8191 51.3012 13.8191 49.6988 14.9338 49.5135L37.0319 45.8398C37.7619 45.7185 38.1117 44.8738 37.6814 44.2718L24.6534 26.0484C23.9962 25.1292 25.1292 23.9962 26.0484 24.6534L44.2718 37.6814C44.8738 38.1117 45.7185 37.7619 45.8398 37.0319L49.5135 14.9338Z" fill="#BFE838"/>
</svg>
