<svg width="12" height="12" viewBox="0 0 12 12" fill="none" xmlns="http://www.w3.org/2000/svg">
<g filter="url(#filter0_d_23_1019)">
<path d="M9.86182 2.88224C10.0873 3.17963 10.2 3.49826 10.2 3.83814C10.2 4.07888 10.1455 4.29484 10.0364 4.48602C9.92727 4.6772 9.75636 4.89317 9.52364 5.13391C9.32 5.33925 9.17091 5.53397 9.07636 5.71807C8.98182 5.89509 8.92 6.06149 8.89091 6.21727C8.86909 6.36596 8.84364 6.60317 8.81455 6.92888C8.81455 7.09174 8.75636 7.21211 8.64 7.29C8.52364 7.36081 8.40364 7.39621 8.28 7.39621C7.95273 7.39621 7.78909 7.20503 7.78909 6.82267C7.78909 6.61733 7.82545 6.37304 7.89818 6.08981C7.97091 5.80658 8.10545 5.49857 8.30182 5.16578C8.36727 5.05248 8.45091 4.93919 8.55273 4.8259C8.66182 4.71261 8.73091 4.63826 8.76 4.60286C8.87636 4.48248 8.97455 4.35857 9.05455 4.23112C9.13455 4.09658 9.17455 3.97975 9.17455 3.88062C9.17455 3.76733 9.15636 3.67882 9.12 3.61509C9.09091 3.55137 9.04364 3.48056 8.97818 3.40267C8.88364 3.29646 8.76 3.21149 8.60727 3.14776C8.45455 3.08404 8.31273 3.05217 8.18182 3.05217C7.97091 3.05217 7.77455 3.09112 7.59273 3.16901C7.41818 3.23981 7.27636 3.3354 7.16727 3.45578C7.06545 3.56907 7.01455 3.6859 7.01455 3.80627C7.01455 4.00453 7.05455 4.15323 7.13455 4.25236C7.21455 4.34441 7.25455 4.42938 7.25455 4.50727C7.25455 4.54975 7.24364 4.59932 7.22182 4.65596C7.13455 4.85422 6.98545 4.95335 6.77455 4.95335C6.50545 4.95335 6.30909 4.85422 6.18545 4.65596C6.06182 4.4577 6 4.20634 6 3.90186C6 3.61155 6.09455 3.3354 6.28364 3.07342C6.47273 2.80435 6.74909 2.58484 7.11273 2.41491C7.47636 2.24497 7.90909 2.16 8.41091 2.16C8.70182 2.16 8.97455 2.22373 9.22909 2.35118C9.48364 2.47155 9.69455 2.64857 9.86182 2.88224ZM8.28 7.79981C8.49818 7.79981 8.67273 7.87416 8.80364 8.02286C8.91273 8.12907 8.96727 8.27422 8.96727 8.45832C8.96727 8.6141 8.89091 8.74509 8.73818 8.8513C8.58545 8.95043 8.41818 9 8.23636 9C8.10545 9 7.97818 8.9646 7.85455 8.89379C7.70182 8.78758 7.62545 8.59994 7.62545 8.33087C7.62545 8.18925 7.69091 8.06534 7.82182 7.95913C7.96 7.85292 8.11273 7.79981 8.28 7.79981Z" fill="#DDDDDD"/>
</g>
<g filter="url(#filter1_d_23_1019)">
<path d="M2.01817 9.23777C1.79272 8.94038 1.67999 8.62174 1.67999 8.28187C1.67999 8.04112 1.73453 7.82516 1.84363 7.63398C1.95272 7.4428 2.12363 7.22684 2.35635 6.98609C2.55999 6.78075 2.70908 6.58603 2.80363 6.40193C2.89817 6.22491 2.95999 6.05851 2.98908 5.90274C3.0109 5.75404 3.03635 5.51684 3.06544 5.19112C3.06544 5.02826 3.12363 4.90789 3.23999 4.83C3.35635 4.7592 3.47635 4.72379 3.59999 4.72379C3.92726 4.72379 4.0909 4.91497 4.0909 5.29733C4.0909 5.50267 4.05453 5.74696 3.98181 6.03019C3.90908 6.31342 3.77453 6.62143 3.57817 6.95423C3.51272 7.06752 3.42908 7.18081 3.32726 7.2941C3.21817 7.40739 3.14908 7.48174 3.11999 7.51715C3.00363 7.63752 2.90544 7.76143 2.82544 7.88889C2.74544 8.02342 2.70544 8.14025 2.70544 8.23938C2.70544 8.35267 2.72363 8.44118 2.75999 8.50491C2.78908 8.56864 2.83635 8.63944 2.90181 8.71733C2.99635 8.82354 3.11999 8.90851 3.27272 8.97224C3.42544 9.03597 3.56726 9.06783 3.69817 9.06783C3.90908 9.06783 4.10544 9.02888 4.28726 8.951C4.46181 8.88019 4.60363 8.7846 4.71272 8.66423C4.81454 8.55093 4.86544 8.4341 4.86544 8.31373C4.86544 8.11547 4.82544 7.96677 4.74544 7.86764C4.66544 7.77559 4.62544 7.69062 4.62544 7.61274C4.62544 7.57025 4.63635 7.52069 4.65817 7.46404C4.74544 7.26578 4.89454 7.16665 5.10544 7.16665C5.37454 7.16665 5.5709 7.26578 5.69454 7.46404C5.81817 7.6623 5.87999 7.91367 5.87999 8.21814C5.87999 8.50845 5.78544 8.7846 5.59635 9.04659C5.40726 9.31565 5.1309 9.53516 4.76726 9.7051C4.40363 9.87503 3.9709 9.96 3.46908 9.96C3.17817 9.96 2.90544 9.89628 2.6509 9.76882C2.39635 9.64845 2.18544 9.47143 2.01817 9.23777ZM3.59999 4.32019C3.38181 4.32019 3.20726 4.24584 3.07635 4.09715C2.96726 3.99093 2.91272 3.84578 2.91272 3.66168C2.91272 3.5059 2.98908 3.37491 3.14181 3.2687C3.29454 3.16957 3.46181 3.12 3.64363 3.12C3.77454 3.12 3.90181 3.15541 4.02544 3.22621C4.17817 3.33243 4.25453 3.52007 4.25453 3.78913C4.25453 3.93075 4.18908 4.05466 4.05817 4.16087C3.91999 4.26708 3.76726 4.32019 3.59999 4.32019Z" fill="#DDDDDD"/>
</g>
<defs>
<filter id="filter0_d_23_1019" x="5" y="1.16" width="6.2" height="8.84" filterUnits="userSpaceOnUse" color-interpolation-filters="sRGB">
<feFlood flood-opacity="0" result="BackgroundImageFix"/>
<feColorMatrix in="SourceAlpha" type="matrix" values="0 0 0 0 0 0 0 0 0 0 0 0 0 0 0 0 0 0 127 0" result="hardAlpha"/>
<feOffset/>
<feGaussianBlur stdDeviation="0.5"/>
<feComposite in2="hardAlpha" operator="out"/>
<feColorMatrix type="matrix" values="0 0 0 0 1 0 0 0 0 0 0 0 0 0 0 0 0 0 0.4 0"/>
<feBlend mode="normal" in2="BackgroundImageFix" result="effect1_dropShadow_23_1019"/>
<feBlend mode="normal" in="SourceGraphic" in2="effect1_dropShadow_23_1019" result="shape"/>
</filter>
<filter id="filter1_d_23_1019" x="0.679993" y="2.12" width="6.2" height="8.84" filterUnits="userSpaceOnUse" color-interpolation-filters="sRGB">
<feFlood flood-opacity="0" result="BackgroundImageFix"/>
<feColorMatrix in="SourceAlpha" type="matrix" values="0 0 0 0 0 0 0 0 0 0 0 0 0 0 0 0 0 0 127 0" result="hardAlpha"/>
<feOffset/>
<feGaussianBlur stdDeviation="0.5"/>
<feComposite in2="hardAlpha" operator="out"/>
<feColorMatrix type="matrix" values="0 0 0 0 1 0 0 0 0 0 0 0 0 0 0 0 0 0 0.4 0"/>
<feBlend mode="normal" in2="BackgroundImageFix" result="effect1_dropShadow_23_1019"/>
<feBlend mode="normal" in="SourceGraphic" in2="effect1_dropShadow_23_1019" result="shape"/>
</filter>
</defs>
</svg>
