<svg width="12" height="12" viewBox="0 0 12 12" fill="none" xmlns="http://www.w3.org/2000/svg">
<g clip-path="url(#clip0_23_934)">
<g filter="url(#filter0_d_23_934)">
<path d="M4.75 8C3.84167 8 3.073 7.68533 2.444 7.056C1.815 6.42667 1.50033 5.658 1.5 4.75C1.49967 3.842 1.81433 3.07333 2.444 2.444C3.07367 1.81467 3.84233 1.5 4.75 1.5C5.65767 1.5 6.4265 1.81467 7.0565 2.444C7.6865 3.07333 8.001 3.842 8 4.75C8 5.11667 7.94167 5.4625 7.825 5.7875C7.70833 6.1125 7.55 6.4 7.35 6.65L10.15 9.45C10.2417 9.54167 10.2875 9.65833 10.2875 9.8C10.2875 9.94167 10.2417 10.0583 10.15 10.15C10.0583 10.2417 9.94167 10.2875 9.8 10.2875C9.65833 10.2875 9.54167 10.2417 9.45 10.15L6.65 7.35C6.4 7.55 6.1125 7.70833 5.7875 7.825C5.4625 7.94167 5.11667 8 4.75 8ZM4.75 7C5.375 7 5.90633 6.78133 6.344 6.344C6.78167 5.90667 7.00033 5.37533 7 4.75C6.99967 4.12467 6.781 3.5935 6.344 3.1565C5.907 2.7195 5.37567 2.50067 4.75 2.5C4.12433 2.49933 3.59317 2.71817 3.1565 3.1565C2.71983 3.59483 2.501 4.126 2.5 4.75C2.499 5.374 2.71783 5.90533 3.1565 6.344C3.59517 6.78267 4.12633 7.00133 4.75 7Z" fill="#DDDDDD"/>
</g>
</g>
<defs>
<filter id="filter0_d_23_934" x="0.5" y="0.5" width="10.7875" height="10.7875" filterUnits="userSpaceOnUse" color-interpolation-filters="sRGB">
<feFlood flood-opacity="0" result="BackgroundImageFix"/>
<feColorMatrix in="SourceAlpha" type="matrix" values="0 0 0 0 0 0 0 0 0 0 0 0 0 0 0 0 0 0 127 0" result="hardAlpha"/>
<feOffset/>
<feGaussianBlur stdDeviation="0.5"/>
<feComposite in2="hardAlpha" operator="out"/>
<feColorMatrix type="matrix" values="0 0 0 0 1 0 0 0 0 1 0 0 0 0 1 0 0 0 0.4 0"/>
<feBlend mode="normal" in2="BackgroundImageFix" result="effect1_dropShadow_23_934"/>
<feBlend mode="normal" in="SourceGraphic" in2="effect1_dropShadow_23_934" result="shape"/>
</filter>
<clipPath id="clip0_23_934">
<rect width="12" height="12" fill="white"/>
</clipPath>
</defs>
</svg>
