<svg width="12" height="12" viewBox="0 0 12 12" fill="none" xmlns="http://www.w3.org/2000/svg">
<g filter="url(#filter0_d_23_1064)">
<path d="M5.60376 8.50981C5.53223 8.41628 5.47171 8.31449 5.42219 8.20445C5.37268 8.08891 5.32041 7.95136 5.26539 7.79181C5.25439 7.7643 5.22137 7.68177 5.16635 7.54422C5.11684 7.40667 5.05907 7.28838 4.99304 7.18934C4.64642 7.23886 4.36307 7.26362 4.14299 7.26362C4.02195 7.26362 3.88715 7.26087 3.7386 7.25537C3.59555 7.24436 3.48826 7.23886 3.41674 7.23886C3.14164 7.21685 2.92156 7.20585 2.7565 7.20585C2.69048 7.29388 2.63271 7.38741 2.58319 7.48645C2.53918 7.58548 2.48141 7.73404 2.40988 7.93211C2.31084 8.21821 2.22556 8.42178 2.15404 8.54282C2.10452 8.62535 2.00824 8.66662 1.86519 8.66662C1.74414 8.66662 1.63135 8.64186 1.52682 8.59234C1.42778 8.53732 1.37827 8.46304 1.37827 8.36951C1.42228 8.16044 1.49106 7.94036 1.58459 7.70928C1.68362 7.47269 1.82392 7.15908 2.00549 6.76844L2.3356 5.95966C2.51717 5.4975 2.68223 5.10135 2.83078 4.77124C2.98483 4.44112 3.18565 4.05048 3.43324 3.59932C3.46625 3.5333 3.52127 3.47828 3.5983 3.43427C3.67533 3.38475 3.76061 3.35999 3.85414 3.35999C3.95868 3.35999 4.03295 3.36824 4.07697 3.38475C4.12649 3.39575 4.165 3.41776 4.19251 3.45077C4.22002 3.47828 4.26128 3.5388 4.3163 3.63234C4.50337 3.92394 4.66293 4.22379 4.79497 4.5319C4.93252 4.84001 5.10583 5.26641 5.31491 5.81111L5.48822 6.24851C5.64227 6.64465 5.77432 6.97752 5.88436 7.24711C5.9999 7.51121 6.12644 7.75329 6.26399 7.97337C6.35202 8.11642 6.39604 8.21546 6.39604 8.27048C6.39604 8.40252 6.35477 8.50431 6.27224 8.57583C6.19522 8.64186 6.09343 8.67487 5.96689 8.67487C5.80733 8.67487 5.68629 8.61985 5.60376 8.50981ZM4.75371 6.5126C4.66568 6.32554 4.53913 6.00092 4.37407 5.53876C4.20351 5.04358 4.03295 4.6502 3.86239 4.35859C3.75786 4.62269 3.6038 4.96381 3.40023 5.38195C3.26268 5.64055 3.10588 6.01468 2.92981 6.50435C3.28194 6.54837 3.66157 6.57037 4.06872 6.57037C4.36032 6.57037 4.58865 6.55112 4.75371 6.5126Z" fill="#DDDDDD"/>
<path d="M10.7177 8.23746C10.7177 8.35851 10.6516 8.46029 10.5196 8.54282C10.3931 8.62535 10.2748 8.66662 10.1647 8.66662C9.95565 8.66662 9.78784 8.64186 9.66129 8.59234C9.54025 8.53732 9.42746 8.43828 9.32292 8.29523C9.17987 8.42178 8.98455 8.51806 8.73697 8.58409C8.48938 8.64461 8.26105 8.67487 8.05197 8.67487C7.71085 8.67487 7.43025 8.58409 7.21018 8.40252C6.9901 8.21546 6.88006 7.94311 6.88006 7.58548C6.88006 7.43143 6.92132 7.29113 7.00385 7.16458C7.08638 7.03254 7.19917 6.917 7.34222 6.81796C7.50178 6.71342 7.68334 6.63365 7.88691 6.57863C8.09049 6.51811 8.30231 6.48785 8.52239 6.48785C8.63793 6.48785 8.77548 6.50985 8.93504 6.55387C9.09459 6.59788 9.21839 6.64465 9.30642 6.69417V6.56212C9.30642 6.26502 9.23489 6.06144 9.09184 5.95141C8.94879 5.83586 8.71771 5.77809 8.3986 5.77809C8.30506 5.77809 8.21153 5.79735 8.118 5.83586C8.02997 5.87438 7.92818 5.92665 7.81264 5.99267C7.65858 6.0752 7.51278 6.11646 7.37523 6.11646C7.32572 6.11646 7.27895 6.08345 7.23493 6.01743C7.19092 5.9459 7.16891 5.88263 7.16891 5.82761C7.16891 5.66806 7.24319 5.53051 7.39174 5.41497C7.54579 5.29943 7.72736 5.21414 7.93643 5.15913C8.14551 5.0986 8.33257 5.06834 8.49763 5.06834C8.66269 5.06834 8.85251 5.10135 9.06708 5.16738C9.28166 5.2279 9.45772 5.31318 9.59527 5.42322C9.76033 5.56627 9.88687 5.73408 9.9749 5.92665C10.0684 6.11371 10.1152 6.32004 10.1152 6.54562C10.1152 6.61714 10.1097 6.72443 10.0987 6.86748C10.0877 7.02153 10.0822 7.15358 10.0822 7.26362C10.0822 7.31314 10.0767 7.38741 10.0657 7.48645C10.0547 7.60749 10.0492 7.70377 10.0492 7.7753C10.0492 7.84132 10.0739 7.89909 10.1235 7.94861C10.173 7.99263 10.2307 8.01463 10.2968 8.01463L10.5278 8.00638C10.5884 8.00638 10.6351 8.02839 10.6681 8.07241C10.7012 8.11642 10.7177 8.17144 10.7177 8.23746ZM8.06023 8.02289C8.29681 8.02289 8.49488 7.99813 8.65444 7.94861C8.81399 7.89909 9.00656 7.80831 9.23214 7.67627C9.25415 7.58273 9.2679 7.45894 9.27341 7.30488C8.9708 7.16183 8.72046 7.09031 8.52239 7.09031C8.29681 7.09031 8.09599 7.13157 7.91993 7.2141C7.74386 7.29663 7.65583 7.44243 7.65583 7.65151C7.65583 7.75604 7.69985 7.84407 7.78788 7.9156C7.87591 7.98713 7.96669 8.02289 8.06023 8.02289Z" fill="#DDDDDD"/>
</g>
<defs>
<filter id="filter0_d_23_1064" x="0.378265" y="2.35999" width="11.3394" height="7.31488" filterUnits="userSpaceOnUse" color-interpolation-filters="sRGB">
<feFlood flood-opacity="0" result="BackgroundImageFix"/>
<feColorMatrix in="SourceAlpha" type="matrix" values="0 0 0 0 0 0 0 0 0 0 0 0 0 0 0 0 0 0 127 0" result="hardAlpha"/>
<feOffset/>
<feGaussianBlur stdDeviation="0.5"/>
<feComposite in2="hardAlpha" operator="out"/>
<feColorMatrix type="matrix" values="0 0 0 0 1 0 0 0 0 1 0 0 0 0 1 0 0 0 0.4 0"/>
<feBlend mode="normal" in2="BackgroundImageFix" result="effect1_dropShadow_23_1064"/>
<feBlend mode="normal" in="SourceGraphic" in2="effect1_dropShadow_23_1064" result="shape"/>
</filter>
</defs>
</svg>
